<svg width="128" height="128" viewBox="0 0 128 128" fill="none" xmlns="http://www.w3.org/2000/svg">
<path d="M63.5 59.1652C59.5589 51.5377 48.8318 37.3178 38.8572 30.3096C29.3003 23.596 25.6594 24.7525 23.2712 25.8353C20.5046 27.0698 20 31.3015 20 33.7834C20 36.2739 21.3702 54.1798 22.262 57.1728C25.22 67.0483 35.7209 70.3835 45.404 69.3137C31.223 71.4057 18.6211 76.547 35.138 94.8601C53.3123 113.593 60.0461 90.8449 63.5 79.3105C66.9539 90.8449 70.9298 112.775 91.5314 94.8601C107 79.3105 95.7813 71.4057 81.6003 69.3137C91.2791 70.3835 101.784 67.0483 104.738 57.1728C105.63 54.1842 107 36.2739 107 33.7877C107 31.2972 106.495 27.0741 103.729 25.8267C101.341 24.7525 97.6997 23.5873 88.1428 30.301C78.1682 37.3221 67.4367 51.542 63.5 59.1652Z" fill="#E06844"/>
</svg>
