<svg width="128" height="128" viewBox="0 0 128 128" fill="none" xmlns="http://www.w3.org/2000/svg">
<path d="M96.382 33.0666C90.3652 30.2385 83.8507 28.1859 77.0648 27C76.9455 27.0017 76.8316 27.0509 76.7481 27.1368C75.9338 28.6421 74.9838 30.6034 74.3504 32.1087C67.1528 31.0146 59.8332 31.0146 52.6356 32.1087C52.0022 30.5578 51.0522 28.6421 50.1926 27.1368C50.1474 27.0456 50.0117 27 49.876 27C43.0901 28.1859 36.6208 30.2385 30.5588 33.0666C30.5135 33.0666 30.4683 33.1122 30.423 33.1578C18.1179 51.7223 14.725 69.7852 16.3988 87.6655C16.3988 87.7568 16.4441 87.848 16.5346 87.8936C24.6776 93.9145 32.5041 97.5636 40.24 99.9811C40.3757 100.027 40.5114 99.9811 40.5567 99.8899C42.3662 97.3811 43.9948 94.7356 45.3973 91.9532C45.4877 91.7707 45.3973 91.5883 45.2163 91.5427C42.6377 90.5392 40.1947 89.3532 37.7971 87.9848C37.6161 87.8936 37.6161 87.6199 37.7518 87.4831C38.2494 87.1182 38.7471 86.7077 39.2447 86.3428C39.3352 86.2515 39.4709 86.2515 39.5614 86.2971C55.1237 93.4584 71.9075 93.4584 87.2889 86.2971C87.3794 86.2515 87.5151 86.2515 87.6056 86.3428C88.1032 86.7533 88.6008 87.1182 89.0985 87.5287C89.2794 87.6655 89.2794 87.9392 89.0532 88.0304C86.7008 89.4445 84.2126 90.5848 81.634 91.5883C81.453 91.6339 81.4078 91.862 81.453 91.9988C82.9007 94.7812 84.5293 97.4268 86.2936 99.9355C86.4293 99.9811 86.5651 100.027 86.7008 99.9811C94.4819 97.5636 102.308 93.9145 110.451 87.8936C110.542 87.848 110.587 87.7568 110.587 87.6655C112.578 67.0028 107.285 49.0768 96.5629 33.1578C96.5177 33.1122 96.4725 33.0666 96.382 33.0666ZM47.7497 76.764C43.0901 76.764 39.1995 72.4307 39.1995 67.094C39.1995 61.7572 42.9996 57.424 47.7497 57.424C52.5451 57.424 56.3452 61.8029 56.2999 67.094C56.2999 72.4307 52.4998 76.764 47.7497 76.764ZM79.2815 76.764C74.6219 76.764 70.7313 72.4307 70.7313 67.094C70.7313 61.7572 74.5314 57.424 79.2815 57.424C84.0769 57.424 87.877 61.8029 87.8318 67.094C87.8318 72.4307 84.0769 76.764 79.2815 76.764Z" fill="#E06844"/>
</svg>
