<svg width="128" height="128" viewBox="0 0 128 128" fill="none" xmlns="http://www.w3.org/2000/svg">
<path d="M64 59.609C60.0136 51.8823 49.1632 37.4778 39.074 30.3786C29.4072 23.5778 25.7244 24.7493 23.3088 25.8462C20.5104 27.0967 20 31.3834 20 33.8975C20 36.4204 21.386 54.5588 22.288 57.5906C25.28 67.5944 35.9016 70.9729 45.696 69.8892C31.352 72.0084 18.6052 77.2165 35.312 95.7674C53.6952 114.744 60.5064 91.7 64 80.0158C67.4936 91.7 71.5152 113.915 92.3536 95.7674C108 80.0158 96.6524 72.0084 82.3084 69.8892C92.0984 70.9729 102.724 67.5944 105.712 57.5906C106.614 54.5632 108 36.4204 108 33.9019C108 31.379 107.49 27.101 104.691 25.8374C102.276 24.7493 98.5928 23.569 88.926 30.3698C78.8368 37.4822 67.982 51.8867 64 59.609Z" fill="#9AA6B9"/>
</svg>
