<svg width="128" height="128" viewBox="0 0 128 128" fill="none" xmlns="http://www.w3.org/2000/svg">
<path d="M97.7665 32.3159C91.4963 29.3716 84.7076 27.2347 77.6359 26C77.5116 26.0018 77.393 26.053 77.3059 26.1425C76.4573 27.7096 75.4673 29.7515 74.8073 31.3186C67.3066 30.1796 59.6788 30.1796 52.1781 31.3186C51.5181 29.704 50.5281 27.7096 49.6323 26.1425C49.5852 26.0475 49.4437 26 49.3023 26C42.2307 27.2347 35.4891 29.3716 29.1718 32.3159C29.1246 32.3159 29.0775 32.3634 29.0303 32.4108C16.2071 51.7383 12.6713 70.5435 14.4156 89.1586C14.4156 89.2536 14.4628 89.3486 14.5571 89.3961C23.043 95.6645 31.199 99.4635 39.2606 101.98C39.402 102.028 39.5435 101.98 39.5906 101.885C41.4764 99.2735 43.1736 96.5192 44.635 93.6225C44.7293 93.4325 44.635 93.2426 44.4465 93.1951C41.7593 92.1504 39.2135 90.9157 36.7148 89.4911C36.5263 89.3961 36.5262 89.1112 36.6677 88.9687C37.1863 88.5888 37.7049 88.1614 38.2234 87.7815C38.3177 87.6865 38.4592 87.6865 38.5534 87.734C54.771 95.1896 72.2615 95.1896 88.2905 87.734C88.3848 87.6865 88.5262 87.6865 88.6205 87.7815C89.1391 88.2089 89.6577 88.5888 90.1763 89.0162C90.3649 89.1586 90.3649 89.4436 90.1291 89.5385C87.6776 91.0107 85.0847 92.1979 82.3975 93.2426C82.2089 93.2901 82.1618 93.5275 82.2089 93.67C83.7175 96.5667 85.4147 99.321 87.2534 101.933C87.3948 101.98 87.5362 102.028 87.6776 101.98C95.7864 99.4635 103.942 95.6645 112.428 89.3961C112.523 89.3486 112.57 89.2536 112.57 89.1586C114.644 67.6467 109.128 48.984 97.9551 32.4108C97.9079 32.3634 97.8608 32.3159 97.7665 32.3159ZM47.0865 77.8091C42.2307 77.8091 38.1763 73.2978 38.1763 67.7417C38.1763 62.1856 42.1364 57.6743 47.0865 57.6743C52.0838 57.6743 56.0439 62.2331 55.9968 67.7417C55.9968 73.2978 52.0367 77.8091 47.0865 77.8091ZM79.946 77.8091C75.0902 77.8091 71.0358 73.2978 71.0358 67.7417C71.0358 62.1856 74.9959 57.6743 79.946 57.6743C84.9433 57.6743 88.9034 62.2331 88.8563 67.7417C88.8563 73.2978 84.9433 77.8091 79.946 77.8091Z" fill="#9AA6B9"/>
</svg>
