<svg width="128" height="128" viewBox="0 0 128 128" fill="none" xmlns="http://www.w3.org/2000/svg">
<path d="M81.0556 18C86.8756 18 92.4572 20.312 96.5726 24.4274C100.688 28.5428 103 34.1244 103 39.9444V75.0556C103 80.8756 100.688 86.4572 96.5726 90.5726C92.4572 94.688 86.8756 97 81.0556 97H45.9444C40.1244 97 34.5428 94.688 30.4274 90.5726C26.312 86.4572 24 80.8756 24 75.0556V39.9444C24 34.1244 26.312 28.5428 30.4274 24.4274C34.5428 20.312 40.1244 18 45.9444 18H81.0556ZM63.5 39.9444C58.844 39.9444 54.3787 41.794 51.0863 45.0863C47.794 48.3787 45.9444 52.844 45.9444 57.5C45.9444 62.156 47.794 66.6213 51.0863 69.9137C54.3787 73.206 58.844 75.0556 63.5 75.0556C68.156 75.0556 72.6213 73.206 75.9137 69.9137C79.206 66.6213 81.0556 62.156 81.0556 57.5C81.0556 52.844 79.206 48.3787 75.9137 45.0863C72.6213 41.794 68.156 39.9444 63.5 39.9444ZM63.5 48.7222C65.828 48.7222 68.0607 49.647 69.7068 51.2932C71.353 52.9393 72.2778 55.172 72.2778 57.5C72.2778 59.828 71.353 62.0607 69.7068 63.7068C68.0607 65.353 65.828 66.2778 63.5 66.2778C61.172 66.2778 58.9393 65.353 57.2932 63.7068C55.647 62.0607 54.7222 59.828 54.7222 57.5C54.7222 55.172 55.647 52.9393 57.2932 51.2932C58.9393 49.647 61.172 48.7222 63.5 48.7222ZM83.25 33.3611C82.086 33.3611 80.9697 33.8235 80.1466 34.6466C79.3235 35.4697 78.8611 36.586 78.8611 37.75C78.8611 38.914 79.3235 40.0303 80.1466 40.8534C80.9697 41.6765 82.086 42.1389 83.25 42.1389C84.414 42.1389 85.5303 41.6765 86.3534 40.8534C87.1765 40.0303 87.6389 38.914 87.6389 37.75C87.6389 36.586 87.1765 35.4697 86.3534 34.6466C85.5303 33.8235 84.414 33.3611 83.25 33.3611Z" fill="#9AA6B9"/>
</svg>
