<svg width="128" height="128" viewBox="0 0 128 128" fill="none" xmlns="http://www.w3.org/2000/svg">
<path d="M64 21C40.264 21 21 40.264 21 64C21 87.736 40.264 107 64 107C87.736 107 107 87.736 107 64C107 40.264 87.736 21 64 21ZM83.952 50.24C83.307 57.034 80.512 73.546 79.093 81.157C78.491 84.382 77.287 85.457 76.169 85.586C73.675 85.801 71.783 83.952 69.375 82.361C65.591 79.867 63.441 78.319 59.786 75.911C55.529 73.116 58.281 71.568 60.732 69.074C61.377 68.429 72.385 58.41 72.6 57.507C72.6299 57.3702 72.6259 57.2282 72.5884 57.0934C72.551 56.9585 72.4811 56.8348 72.385 56.733C72.127 56.518 71.783 56.604 71.482 56.647C71.095 56.733 65.075 60.732 53.336 68.644C51.616 69.805 50.068 70.407 48.692 70.364C47.144 70.321 44.22 69.504 42.027 68.773C39.318 67.913 37.211 67.44 37.383 65.935C37.469 65.161 38.544 64.387 40.565 63.57C53.121 58.109 61.463 54.497 65.634 52.777C77.588 47.789 80.039 46.929 81.673 46.929C82.017 46.929 82.834 47.015 83.35 47.445C83.78 47.789 83.909 48.262 83.952 48.606C83.909 48.864 83.995 49.638 83.952 50.24Z" fill="#9AA6B9"/>
</svg>
