<svg width="377" height="57" viewBox="0 0 377 57" fill="none" xmlns="http://www.w3.org/2000/svg">
<g filter="url(#filter0_g_48_3)">
<path d="M4.00004 42.88V4.72H8.95004V17.905H10.3C10.99 17.035 11.875 16.36 12.955 15.88C14.035 15.4 15.22 15.16 16.51 15.16C18.4 15.16 20.035 15.58 21.415 16.42C22.795 17.26 23.875 18.445 24.655 19.975C25.435 21.505 25.825 23.305 25.825 25.375V42.88H20.875V26.725C20.875 24.475 20.365 22.78 19.345 21.64C18.355 20.47 16.885 19.885 14.935 19.885C12.985 19.885 11.5 20.47 10.48 21.64C9.46004 22.78 8.95004 24.475 8.95004 26.725V42.88H4.00004ZM38.4788 26.635H54.7238L53.0588 28.975C53.0588 25.945 52.5188 23.635 51.4388 22.045C50.3588 20.455 48.7838 19.66 46.7138 19.66C44.4638 19.66 42.7088 20.5 41.4488 22.18C40.1888 23.83 39.5588 26.155 39.5588 29.155C39.5588 32.365 40.1888 34.825 41.4488 36.535C42.7088 38.245 44.5088 39.1 46.8488 39.1C48.3788 39.1 49.7138 38.725 50.8538 37.975C51.9938 37.195 52.9538 36.07 53.7338 34.6H58.3688C57.9188 36.46 57.1538 38.065 56.0738 39.415C55.0238 40.765 53.7038 41.8 52.1138 42.52C50.5538 43.24 48.7988 43.6 46.8488 43.6C44.3288 43.6 42.1538 43.03 40.3238 41.89C38.5238 40.75 37.1438 39.1 36.1838 36.94C35.2238 34.78 34.7438 32.185 34.7438 29.155C34.7438 26.275 35.2238 23.8 36.1838 21.73C37.1738 19.63 38.5688 18.01 40.3688 16.87C42.1688 15.73 44.2838 15.16 46.7138 15.16C49.0238 15.16 50.9888 15.7 52.6088 16.78C54.2288 17.86 55.4738 19.435 56.3438 21.505C57.2138 23.545 57.6488 26.02 57.6488 28.93C57.6488 29.26 57.6338 29.605 57.6038 29.965C57.6038 30.325 57.5888 30.67 57.5588 31H38.4788V26.635ZM64.9926 15.88H70.3026L77.2326 36.085H80.3826L78.9876 40.63H73.5876L64.9926 15.88ZM90.4176 15.88L80.4726 46.795C79.8726 48.625 78.9726 50.05 77.7726 51.07C76.5726 52.09 75.1776 52.6 73.5876 52.6C71.3076 52.6 69.5076 51.97 68.1876 50.71C66.8676 49.45 66.1176 47.62 65.9376 45.22H70.4376C70.7976 46.21 71.1876 46.93 71.6076 47.38C72.0576 47.83 72.6576 48.055 73.4076 48.055C74.0676 48.055 74.5926 47.845 74.9826 47.425C75.4026 47.005 75.7776 46.315 76.1076 45.355L85.5126 15.88H90.4176ZM115.311 26.005V30.37L107.211 31.63C105.951 31.84 105.006 32.275 104.376 32.935C103.776 33.595 103.476 34.465 103.476 35.545C103.476 36.565 103.851 37.39 104.601 38.02C105.381 38.65 106.371 38.965 107.571 38.965C108.891 38.965 110.091 38.65 111.171 38.02C112.281 37.39 113.166 36.55 113.826 35.5C114.486 34.42 114.816 33.235 114.816 31.945V25.33C114.816 23.59 114.291 22.225 113.241 21.235C112.191 20.245 110.751 19.75 108.921 19.75C107.631 19.75 106.476 19.96 105.456 20.38C104.436 20.8 103.596 21.415 102.936 22.225C102.306 23.035 101.871 24.025 101.631 25.195H96.9064C97.0564 23.125 97.6414 21.34 98.6614 19.84C99.7114 18.34 101.121 17.185 102.891 16.375C104.661 15.565 106.716 15.16 109.056 15.16C112.416 15.16 115.011 16.015 116.841 17.725C118.701 19.435 119.631 21.865 119.631 25.015V42.88H114.816V40.405H113.466C112.746 41.425 111.801 42.205 110.631 42.745C109.491 43.285 108.081 43.555 106.401 43.555C104.751 43.555 103.311 43.24 102.081 42.61C100.881 41.95 99.9364 41.035 99.2464 39.865C98.5864 38.695 98.2564 37.33 98.2564 35.77C98.2564 33.52 98.9764 31.675 100.416 30.235C101.856 28.765 103.911 27.82 106.581 27.4L115.311 26.005ZM162.984 15.88H176.124V38.245H184.269V42.88H162.984V38.245H171.174V20.515H162.984V15.88ZM173.289 11.875C172.119 11.875 171.204 11.56 170.544 10.93C169.884 10.27 169.554 9.37 169.554 8.23C169.554 7.09 169.884 6.205 170.544 5.575C171.204 4.915 172.119 4.585 173.289 4.585C174.459 4.585 175.374 4.915 176.034 5.575C176.694 6.205 177.024 7.09 177.024 8.23C177.024 9.37 176.694 10.27 176.034 10.93C175.374 11.56 174.459 11.875 173.289 11.875ZM199.038 20.335C200.148 19.435 201.138 18.25 202.008 16.78C202.878 15.31 203.448 13.795 203.718 12.235V4C205.308 4 206.463 4.45 207.183 5.35C207.933 6.25 208.308 7.63 208.308 9.49C208.308 10.84 208.188 12.19 207.948 13.54C207.708 14.89 207.378 16.15 206.958 17.32C206.538 18.49 206.028 19.495 205.428 20.335H199.038ZM203.718 12.595C202.398 12.595 201.378 12.22 200.658 11.47C199.938 10.72 199.578 9.655 199.578 8.275C199.578 6.925 199.938 5.875 200.658 5.125C201.378 4.375 202.398 4 203.718 4C205.038 4 206.058 4.375 206.778 5.125C207.498 5.875 207.858 6.925 207.858 8.275C207.858 9.655 207.498 10.72 206.778 11.47C206.058 12.22 205.038 12.595 203.718 12.595ZM222.897 15.88H227.847V18.04H231.402L228.747 19.615C228.837 18.235 229.257 17.155 230.007 16.375C230.787 15.565 231.792 15.16 233.022 15.16C234.192 15.16 235.167 15.61 235.947 16.51C236.727 17.41 237.207 18.625 237.387 20.155L234.597 18.265H240.402L237.882 19.705C237.972 18.325 238.437 17.23 239.277 16.42C240.147 15.58 241.242 15.16 242.562 15.16C244.122 15.16 245.367 15.82 246.297 17.14C247.257 18.43 247.737 20.17 247.737 22.36V42.88H243.012V24.295C243.012 23.065 242.787 22.15 242.337 21.55C241.887 20.92 241.212 20.605 240.312 20.605C239.442 20.605 238.782 20.92 238.332 21.55C237.882 22.15 237.657 23.065 237.657 24.295V42.88H232.977V24.295C232.977 23.065 232.752 22.15 232.302 21.55C231.852 20.92 231.192 20.605 230.322 20.605C229.422 20.605 228.747 20.92 228.297 21.55C227.847 22.15 227.622 23.065 227.622 24.295V42.88H222.897V15.88ZM299.369 42.88H294.419V20.515H288.389V15.88H294.419V12.955C294.419 10.165 295.214 7.975 296.804 6.385C298.424 4.795 300.659 4 303.509 4C306.209 4 308.354 4.69 309.944 6.07C311.564 7.45 312.449 9.37 312.599 11.83H308.099C307.679 10.78 307.079 9.985 306.299 9.445C305.549 8.875 304.619 8.59 303.509 8.59C302.189 8.59 301.169 8.995 300.449 9.805C299.729 10.615 299.369 11.77 299.369 13.27V15.88H309.629V20.515H299.369V42.88ZM322.058 26.635H338.303L336.638 28.975C336.638 25.945 336.098 23.635 335.018 22.045C333.938 20.455 332.363 19.66 330.293 19.66C328.043 19.66 326.288 20.5 325.028 22.18C323.768 23.83 323.138 26.155 323.138 29.155C323.138 32.365 323.768 34.825 325.028 36.535C326.288 38.245 328.088 39.1 330.428 39.1C331.958 39.1 333.293 38.725 334.433 37.975C335.573 37.195 336.533 36.07 337.313 34.6H341.948C341.498 36.46 340.733 38.065 339.653 39.415C338.603 40.765 337.283 41.8 335.693 42.52C334.133 43.24 332.378 43.6 330.428 43.6C327.908 43.6 325.733 43.03 323.903 41.89C322.103 40.75 320.723 39.1 319.763 36.94C318.803 34.78 318.323 32.185 318.323 29.155C318.323 26.275 318.803 23.8 319.763 21.73C320.753 19.63 322.148 18.01 323.948 16.87C325.748 15.73 327.863 15.16 330.293 15.16C332.603 15.16 334.568 15.7 336.188 16.78C337.808 17.86 339.053 19.435 339.923 21.505C340.793 23.545 341.228 26.02 341.228 28.93C341.228 29.26 341.213 29.605 341.183 29.965C341.183 30.325 341.168 30.67 341.138 31H322.058V26.635ZM350.597 42.88V15.88H355.547V17.905H356.897C357.587 17.035 358.472 16.36 359.552 15.88C360.632 15.4 361.817 15.16 363.107 15.16C364.997 15.16 366.632 15.58 368.012 16.42C369.392 17.26 370.472 18.445 371.252 19.975C372.032 21.505 372.422 23.305 372.422 25.375V42.88H367.472V26.725C367.472 24.475 366.962 22.78 365.942 21.64C364.952 20.47 363.482 19.885 361.532 19.885C359.582 19.885 358.097 20.47 357.077 21.64C356.057 22.78 355.547 24.475 355.547 26.725V42.88H350.597Z" fill="#9AA6B9"/>
</g>
<defs>
<filter id="filter0_g_48_3" x="0" y="0" width="376.422" height="56.6" filterUnits="userSpaceOnUse" color-interpolation-filters="sRGB">
<feFlood flood-opacity="0" result="BackgroundImageFix"/>
<feBlend mode="normal" in="SourceGraphic" in2="BackgroundImageFix" result="shape"/>
<feTurbulence type="fractalNoise" baseFrequency="0.99900001287460327 0.99900001287460327" numOctaves="3" seed="2069" />
<feDisplacementMap in="shape" scale="8" xChannelSelector="R" yChannelSelector="G" result="displacedImage" width="100%" height="100%" />
<feMerge result="effect1_texture_48_3">
<feMergeNode in="displacedImage"/>
</feMerge>
</filter>
</defs>
</svg>
