<svg width="128" height="128" viewBox="0 0 128 128" fill="none" xmlns="http://www.w3.org/2000/svg">
<path d="M80 28C85.3043 28 90.3914 30.1071 94.1421 33.8579C97.8929 37.6086 100 42.6957 100 48V80C100 85.3043 97.8929 90.3914 94.1421 94.1421C90.3914 97.8929 85.3043 100 80 100H48C42.6957 100 37.6086 97.8929 33.8579 94.1421C30.1071 90.3914 28 85.3043 28 80V48C28 42.6957 30.1071 37.6086 33.8579 33.8579C37.6086 30.1071 42.6957 28 48 28H80ZM64 48C59.7565 48 55.6869 49.6857 52.6863 52.6863C49.6857 55.6869 48 59.7565 48 64C48 68.2435 49.6857 72.3131 52.6863 75.3137C55.6869 78.3143 59.7565 80 64 80C68.2435 80 72.3131 78.3143 75.3137 75.3137C78.3143 72.3131 80 68.2435 80 64C80 59.7565 78.3143 55.6869 75.3137 52.6863C72.3131 49.6857 68.2435 48 64 48ZM64 56C66.1217 56 68.1566 56.8429 69.6569 58.3431C71.1571 59.8434 72 61.8783 72 64C72 66.1217 71.1571 68.1566 69.6569 69.6569C68.1566 71.1571 66.1217 72 64 72C61.8783 72 59.8434 71.1571 58.3431 69.6569C56.8429 68.1566 56 66.1217 56 64C56 61.8783 56.8429 59.8434 58.3431 58.3431C59.8434 56.8429 61.8783 56 64 56ZM82 42C80.9391 42 79.9217 42.4214 79.1716 43.1716C78.4214 43.9217 78 44.9391 78 46C78 47.0609 78.4214 48.0783 79.1716 48.8284C79.9217 49.5786 80.9391 50 82 50C83.0609 50 84.0783 49.5786 84.8284 48.8284C85.5786 48.0783 86 47.0609 86 46C86 44.9391 85.5786 43.9217 84.8284 43.1716C84.0783 42.4214 83.0609 42 82 42Z" fill="#E06844"/>
</svg>
