<svg width="128" height="128" viewBox="0 0 128 128" fill="none" xmlns="http://www.w3.org/2000/svg">
<path d="M64 24C41.92 24 24 41.92 24 64C24 86.08 41.92 104 64 104C86.08 104 104 86.08 104 64C104 41.92 86.08 24 64 24ZM82.56 51.2C81.96 57.52 79.36 72.88 78.04 79.96C77.48 82.96 76.36 83.96 75.32 84.08C73 84.28 71.24 82.56 69 81.08C65.48 78.76 63.48 77.32 60.08 75.08C56.12 72.48 58.68 71.04 60.96 68.72C61.56 68.12 71.8 58.8 72 57.96C72.0278 57.8328 72.0241 57.7007 71.9892 57.5752C71.9544 57.4497 71.8894 57.3347 71.8 57.24C71.56 57.04 71.24 57.12 70.96 57.16C70.6 57.24 65 60.96 54.08 68.32C52.48 69.4 51.04 69.96 49.76 69.92C48.32 69.88 45.6 69.12 43.56 68.44C41.04 67.64 39.08 67.2 39.24 65.8C39.32 65.08 40.32 64.36 42.2 63.6C53.88 58.52 61.64 55.16 65.52 53.56C76.64 48.92 78.92 48.12 80.44 48.12C80.76 48.12 81.52 48.2 82 48.6C82.4 48.92 82.52 49.36 82.56 49.68C82.52 49.92 82.6 50.64 82.56 51.2Z" fill="#E06844"/>
</svg>
